<svg width="63" height="113" viewBox="0 0 63 113" fill="none" xmlns="http://www.w3.org/2000/svg">
<path d="M30.4002 92.6823C29.4009 92.6823 28.5907 94.9192 28.5907 97.6784V108.004C28.5907 110.763 29.4009 113 30.4002 113C31.3995 113 32.2097 110.763 32.2097 108.004V97.6784C32.2097 94.9192 31.3995 92.6823 30.4002 92.6823Z" fill="white"/>
<path d="M42.9762 95.3579L40.4171 88.2921C39.7106 86.341 38.5649 86.341 37.8579 88.2921C37.1513 90.2432 37.1513 93.4064 37.8579 95.3579L40.4171 102.424C41.1235 104.375 42.2693 104.375 42.9762 102.424C43.6829 100.473 43.6829 97.309 42.9762 95.3579Z" fill="white"/>
<path d="M22.9424 88.2921C22.2358 86.341 21.0902 86.341 20.3833 88.2921L17.8241 95.3579C17.1175 97.309 17.1175 100.472 17.8241 102.424C18.5307 104.375 19.6763 104.375 20.3833 102.424L22.9424 95.3579C23.6492 93.4067 23.6492 90.2436 22.9424 88.2921Z" fill="white"/>
<path d="M60.0702 53.477C58.3437 49.7215 54.2599 44.3995 50.139 40.5352C46.9514 37.5458 42.7308 34.472 39.2382 34.9653C39.7824 33.4883 40.0696 31.8682 40.0696 30.1964C40.0696 25.5437 37.8304 21.5373 34.6353 19.782L35.9204 18.1683C36.6271 17.2808 36.6271 15.842 35.9204 14.9543C35.2138 14.0669 34.0681 14.0669 33.3613 14.9543L31.0218 17.8924L28.6821 14.9542C27.9756 14.0667 26.8298 14.0667 26.123 14.9542C25.4163 15.8417 25.4163 17.2805 26.123 18.1681L27.4081 19.782C24.2129 21.5373 21.9738 25.5437 21.9738 30.1964C21.9738 31.89 22.2691 33.5303 22.8273 35.0229C19.2752 34.2757 14.894 37.4513 11.6118 40.5367C7.50445 44.3975 3.42919 49.7188 1.70147 53.477C-1.79908 61.0914 0.274253 70.8113 6.33792 75.2078C11.1814 78.7198 17.1029 77.7062 21.0327 73.6226C23.8791 76.4074 27.3636 77.9203 31.0216 77.9203C34.6007 77.9203 38.0337 76.46 40.8526 73.7736C44.7516 77.6915 50.6067 78.7075 55.4335 75.2077C61.4826 70.8218 63.5623 61.0735 60.0702 53.477ZM31.0217 23.3788C34.0151 23.3788 36.4503 26.4373 36.4503 30.1964C36.4503 31.4472 36.1819 32.649 35.6812 33.697C34.1585 32.8883 32.5869 32.4691 31.0218 32.4691C29.4555 32.4691 27.8841 32.8864 26.3617 33.6954C25.8613 32.648 25.5932 31.4466 25.5932 30.1964C25.593 26.4373 28.0283 23.3788 31.0217 23.3788ZM33.8238 52.2834C33.9378 53.4137 34.0853 54.5678 34.2597 55.7229C33.2099 55.375 32.1228 55.1948 31.0218 55.1948C29.8021 55.1948 28.6047 55.4138 27.457 55.8357C27.639 54.6433 27.792 53.4508 27.9098 52.2835C28.3722 47.6975 28.4372 42.1037 26.7526 38.5057C28.1511 37.5164 29.5811 37.0142 31.0217 37.0142C32.3811 37.0142 33.7321 37.4611 35.0565 38.3439C33.293 41.9344 33.354 47.6289 33.8238 52.2834ZM20.2569 68.0548C17.7206 72.5757 12.3373 74.3095 8.14731 71.2714C3.81655 68.1313 2.33504 61.189 4.83555 55.7495C6.07832 53.0468 9.63557 48.0717 13.7806 44.1754C18.6427 39.605 21.6613 38.9091 22.8651 39.7819C24.0623 40.65 25.073 44.24 24.319 51.7118C23.8683 56.1789 22.3714 64.2856 20.2569 68.0548ZM31.0218 73.375C28.2658 73.375 25.6366 72.271 23.4624 70.2332C23.6087 69.9569 23.7494 69.6745 23.8826 69.385C24.7941 67.4023 25.6831 64.5214 26.4144 61.322C27.8055 60.2853 29.3855 59.7397 31.0218 59.7397C32.5087 59.7397 33.9606 60.195 35.26 61.0614C36.0021 64.365 36.9147 67.3487 37.8509 69.3851C38.0146 69.7413 38.1889 70.0873 38.3726 70.4233C36.2378 72.338 33.6819 73.375 31.0218 73.375ZM53.6242 71.2716C49.2635 74.4335 43.4751 72.529 40.9848 67.1125C39.7322 64.3874 38.0549 58.064 37.414 51.7119C37.1038 48.6386 36.7084 41.4939 38.8168 39.8927C38.9054 39.8254 38.99 39.748 39.0698 39.6604C41.3814 38.4895 45.9668 42.2952 47.9734 44.1769C52.1318 48.0767 55.6947 53.0501 56.9358 55.7497C59.4304 61.1757 57.9447 68.1387 53.6242 71.2716Z" fill="white"/>
</svg>
